<?xml version="1.0" ?><svg id="icon" viewBox="0 0 512 512" xmlns="http://www.w3.org/2000/svg"><title/><path d="M475.91,166.19c-44.6-114-147.66-142.7-147.66-142.7-46-14.8-83.81-5.91-109.08,5.6-8.09,3.69-4.79,15.82,4.05,14.85,102-11.16,156.56,48.92,156.56,48.92,34.27,34.27,48.42,72.22,53.76,102.92,4.77,27.41-.72,55.42-14.07,79.82-13.52,24.73-15.9,55.09-15.9,55.09S386.72,415.91,260.87,406c-122.82-9.67-117.29-143.9-117-150.38a4.51,4.51,0,0,0,0-.52,170.4,170.4,0,0,0-5.73-35.41C125,172.81,60.83,166.34,38.48,209.6c-.39.76-.58,1.18-.58,1.18C-8.68,299,53.75,404,53.75,404s54.51,92.26,199.19,92.26S456.09,382.22,456.09,382.22C521.49,283.12,475.91,166.19,475.91,166.19Z"/><ellipse cx="148.74" cy="67.77" rx="18.58" ry="15.85" transform="translate(-13.96 83.45) rotate(-30)"/></svg>